<svg width="47" height="47" viewBox="0 0 47 47" fill="none" xmlns="http://www.w3.org/2000/svg">
<path d="M41.4 16.5C40.4 16.5 39.4 16 38.8 15V14.9C38 13.5 38.5 11.6 39.9 10.8C41.3 10 43.2 10.5 44 11.9C44.8 13.3 44.3 15.2 42.9 16C42.4 16.3 41.9 16.5 41.4 16.5Z" fill="#009DA9"/>
<path d="M23.5 47C36.5 47 47 36.5 47 23.5C47 22.3 46.9 21.1 46.7 20C46.5 18.4 44.9 17.2 43.3 17.5C41.7 17.7 40.5 19.3 40.8 20.9C40.9 21.8 41 22.7 41 23.5C41 33.1 33.2 41 23.5 41C13.8 41 6 33.1 6 23.5C6 13.9 13.9 6 23.5 6C27.6 6 31.6 7.5 34.7 10.1C36 11.2 37.9 11 38.9 9.7C40 8.4 39.8 6.5 38.5 5.5C34.4 1.9 29 0 23.5 0C10.5 0 0 10.5 0 23.5C0 36.5 10.5 47 23.5 47Z" fill="white"/>
<path d="M29 16.5L21.4 24.1L18 20.7C16.8 19.5 14.9 19.5 13.8 20.7C12.6 21.9 12.6 23.8 13.8 24.9L19.3 30.4C19.9 31 20.6 31.3 21.4 31.3C22.2 31.3 23 31 23.5 30.4L33.2 20.7C34.4 19.5 34.4 17.6 33.2 16.5C32.1 15.3 30.2 15.3 29 16.5Z" fill="white"/>
</svg>
